<svg id="Layer_1" enable-background="new 0 0 510 510" height="512" viewBox="0 0 510 510" width="512" xmlns="http://www.w3.org/2000/svg"><g id="XMLID_2492_"><path id="XMLID_2491_" d="m195.006 232.134-.003.003-.003.004v143.815l29.183 20.377 30.817-6.333 10-74.601-10-63.259z" fill="#ff641a"/><path id="XMLID_2490_" d="m315 232.141-.003-.004-.003-.003c-7.768 6.468-59.994 20.007-59.994 20.007v137.859l30.817 8.667 29.183-22.711c0-17.461 0-126.292 0-143.815z" fill="#f03800"/><path id="XMLID_2475_" d="m195.006 232.134c16.396 13.654 38.659 20.007 59.994 20.007l8.333-36.474-8.333-52.526c-7.28 8.372-52.683 60.586-59.994 68.993z" fill="#fcc"/><path id="XMLID_2438_" d="m255 163.141v89c21.338 0 43.6-6.354 59.994-20.007-7.288-8.381-52.684-60.586-59.994-68.993z" fill="#ffb3b3"/><path id="XMLID_2404_" d="m120 255c0-74.557 60.44-135 135-135l15-60-15-60c-14.78 0-27.517 0-42.297 0-2.984 14.92-7.34 36.699-10.331 51.656-18.931 4.88-36.999 12.364-53.921 22.359-12.673-8.449-31.158-20.773-43.853-29.236-7.271 7.271-52.528 52.527-59.817 59.817 8.448 12.673 20.772 31.158 29.235 43.853-9.982 16.901-17.472 34.966-22.358 53.921-14.919 2.984-36.7 7.341-51.657 10.332v84.594c14.951 2.99 36.717 7.344 51.657 10.331 4.879 18.931 12.364 36.999 22.358 53.922-8.449 12.673-20.772 31.158-29.235 43.853 7.283 7.283 52.534 52.534 59.817 59.817 12.673-8.448 31.158-20.772 43.853-29.235 16.901 9.981 34.966 17.473 53.921 22.357 2.984 14.92 7.34 36.7 10.331 51.657h42.297l15-60-15-60c-74.38.002-135-60.297-135-134.998z" fill="#78c4f8"/><path id="XMLID_2326_" d="m307.628 458.343c18.931-4.879 37-12.364 53.922-22.357 12.673 8.448 31.158 20.771 43.854 29.235 7.283-7.283 52.531-52.531 59.817-59.817-8.455-12.683-20.774-31.161-29.235-43.853 9.981-16.9 17.472-34.967 22.357-53.922 17.227-3.445 34.431-6.886 51.657-10.331 0-10.232 0-74.294 0-84.594-14.92-2.984-36.7-7.34-51.657-10.332-4.879-18.931-12.364-36.998-22.357-53.921 8.456-12.684 20.774-31.161 29.235-43.853-7.283-7.282-52.531-52.531-59.817-59.817-12.673 8.448-31.158 20.773-43.854 29.236-16.902-9.982-34.967-17.474-53.922-22.359-2.99-14.951-7.343-36.717-10.331-51.656-14.78-.002-27.517-.002-42.297-.002v120c74.557 0 135 60.439 135 135 0 74.816-60.719 135-135 135v120h42.297c3.445-17.226 6.888-34.443 10.331-51.657z" fill="#249ec5"/></g></svg>