<svg id="Capa_1" enable-background="new 0 0 512.015 512.015" height="512" viewBox="0 0 512.015 512.015" width="512" xmlns="http://www.w3.org/2000/svg"><path d="m377.061 255.851 130.566-130.719c2.815-2.818 4.394-6.641 4.388-10.624s-1.597-7.8-4.42-10.609l-100.014-99.514c-5.862-5.833-15.338-5.822-21.187.026l-130.386 130.387-109.189-109.188c-2.181-2.182-4.982-3.638-8.02-4.169l-121.213-21.213c-4.814-.84-9.737.714-13.193 4.17s-5.011 8.379-4.167 13.193l21.227 121.199c.532 3.041 1.99 5.844 4.175 8.025l109.248 109.115-130.476 130.475c-2.813 2.813-4.394 6.628-4.394 10.606 0 3.979 1.581 7.794 4.394 10.607l99.987 99.986c2.813 2.814 6.628 4.393 10.606 4.393h.004c3.98-.001 7.796-1.584 10.608-4.399l130.468-130.618 130.805 130.643c2.814 2.81 6.626 4.387 10.601 4.387h.023c3.983-.005 7.8-1.597 10.609-4.42l99.514-100.015c5.833-5.862 5.821-15.339-.026-21.187zm-69.082-130.598 31.82 31.82c2.929 2.93 6.768 4.394 10.607 4.394s7.678-1.464 10.606-4.394c5.858-5.857 5.858-15.355 0-21.213l-31.82-31.82 28.787-28.787 31.82 31.82c2.929 2.93 6.768 4.394 10.607 4.394s7.678-1.464 10.606-4.394c5.858-5.857 5.858-15.355 0-21.213l-31.82-31.82 17.836-17.836 78.754 78.36-119.934 120.074-78.627-78.627zm-202.78-79.236-59.175 59.176-12.563-71.73zm9.788 429.761-78.767-78.767 17.813-17.813 31.82 31.82c2.928 2.929 6.768 4.394 10.606 4.394 3.839 0 7.678-1.465 10.606-4.394 5.858-5.857 5.858-15.355 0-21.213l-31.82-31.82 28.787-28.787 31.82 31.82c2.928 2.929 6.768 4.394 10.607 4.394s7.678-1.465 10.606-4.394c5.858-5.857 5.858-15.355 0-21.213l-31.82-31.82 30.856-30.855 78.745 78.648zm282.458-.001-339.999-339.581 28.767-28.767 339.719 339.719zm49.646-49.896-339.665-339.665 28.787-28.787 339.593 339.593z"/></svg>